<svg width="86" height="44" viewBox="0 0 86 44" fill="none" xmlns="http://www.w3.org/2000/svg">
<path fill-rule="evenodd" clip-rule="evenodd" d="M58.716 33.3438C58.6424 33.3997 58.5688 33.4521 58.4935 33.5027C57.6794 34.0536 56.7431 34.3972 55.7659 34.5035C55.6923 34.5112 55.6187 34.5176 55.5445 34.5229L55.4332 34.53C55.3608 34.5341 55.2885 34.5365 55.216 34.5376H55.0982H55.0118C54.9364 34.5376 54.8616 34.5347 54.7869 34.5306L54.682 34.5247C54.612 34.52 54.5425 34.5141 54.4731 34.507C53.4811 34.4063 52.5299 34.0604 51.705 33.5004C51.6295 33.4492 51.5548 33.395 51.4812 33.3403V33.3361V33.3361L51.4859 33.3232C51.0992 33.0327 50.7488 32.6969 50.4421 32.323L50.428 32.3053C50.237 32.0697 50.0644 31.8197 49.9116 31.5577C49.7657 31.3079 49.638 31.0477 49.5296 30.7794C49.5254 30.7706 49.5219 30.7606 49.5184 30.7518L48.6082 28.4771L47.1182 24.7524L46.9811 24.4086L46.9533 24.3403L42.9183 14.2502L42.9012 14.2078H42.8929C42.081 12.7182 40.5208 11.7903 38.8242 11.7878C37.1276 11.7854 35.5648 12.7088 34.7485 14.196L37.3077 7.7999C37.711 6.78958 38.3808 5.90759 39.2458 5.24794C39.3364 5.1773 39.4283 5.11078 39.523 5.0472C40.4939 4.39083 41.6352 4.0318 42.8069 4.01404H42.9218H43.01C45.0046 4.0505 46.852 5.07061 47.9453 6.7391C47.9707 6.77736 47.9954 6.81622 48.02 6.85684C48.0448 6.89746 48.0789 6.94926 48.1043 6.99635C48.1202 7.02285 48.1355 7.04991 48.1502 7.07701C48.2813 7.30965 48.3967 7.55077 48.4958 7.79873L51.0614 14.2113V14.2113L55.0995 24.3003V24.308V24.308L55.1042 24.3191L55.1401 24.4069L58.716 33.3438Z" fill="url(#paint0_linear_2_26)"/>
<path fill-rule="evenodd" clip-rule="evenodd" d="M34.3306 33.3456C34.2576 33.401 34.184 33.4534 34.108 33.5046C33.137 34.1611 31.9955 34.5204 30.8234 34.5383H30.7085H30.6214C29.4421 34.5235 28.2931 34.163 27.3167 33.5016C27.2421 33.4498 27.1675 33.3963 27.0929 33.3409L27.1 33.3244C26.4626 32.8458 25.9266 32.2455 25.523 31.5583C25.3769 31.3085 25.2492 31.0484 25.1408 30.7801C25.1367 30.7712 25.1332 30.7618 25.1296 30.7524L24.2193 28.4776L22.7288 24.7529L22.5916 24.4091L22.5645 24.3408L18.5126 14.2092H18.5037C17.6903 12.7177 16.1268 11.7897 14.4276 11.7897C12.7284 11.7897 11.1649 12.7178 10.3515 14.2092L12.9166 7.79767C13.8326 5.51188 16.0477 4.01343 18.5108 4.01343C20.9739 4.01343 23.189 5.51188 24.105 7.79767L30.7121 24.3014L30.7197 24.3208L30.7556 24.4085L34.3306 33.3456Z" fill="url(#paint1_linear_2_26)"/>
<path fill-rule="evenodd" clip-rule="evenodd" d="M83.1116 33.3426C83.0386 33.3985 82.9652 33.4509 82.8891 33.5016C81.9185 34.1583 80.7772 34.5175 79.6052 34.5353H79.4875H79.4004C78.2218 34.5211 77.0733 34.161 76.0975 33.4998C76.0228 33.4486 75.948 33.3944 75.8738 33.3397L75.8809 33.3226C75.0079 32.6684 74.3307 31.788 73.9222 30.7766C73.9181 30.7678 73.9145 30.7578 73.911 30.749L73.0008 28.4743L71.5108 24.7499L71.3735 24.4061L71.3465 24.3378L67.3142 14.2498L67.2972 14.208H67.2883C66.4762 12.718 64.9156 11.7901 63.2186 11.7881C61.5215 11.7861 59.9588 12.7105 59.1432 14.1986L61.703 7.80034C62.1066 6.79013 62.7767 5.90823 63.6417 5.24846C63.7324 5.17783 63.8242 5.11132 63.919 5.04773C64.8896 4.39116 66.0306 4.03193 67.2023 4.01402H67.3202H67.4084C69.1924 4.04712 70.8704 4.86728 71.9923 6.25448C72.02 6.28863 72.047 6.32395 72.0742 6.35869L72.0948 6.38518C72.1171 6.41461 72.1389 6.44404 72.1607 6.47406C72.1954 6.52116 72.2296 6.56884 72.2626 6.61711C72.2884 6.65478 72.3144 6.69246 72.3391 6.73072C72.3426 6.73602 72.3462 6.74131 72.3491 6.74661C72.3656 6.77075 72.3809 6.79429 72.3956 6.81903L72.4344 6.87789C72.6137 7.16969 72.7675 7.47634 72.8943 7.79444L75.4599 14.2068V14.2068L79.4957 24.2948L79.5039 24.3142L79.5393 24.4019L83.1116 33.3426Z" fill="url(#paint2_linear_2_26)"/>
<path opacity="0.2" fill-rule="evenodd" clip-rule="evenodd" d="M34.3306 33.3456C34.2576 33.401 34.184 33.4534 34.108 33.5046C33.137 34.1611 31.9955 34.5204 30.8234 34.5383H30.7085H30.6214C29.4421 34.5235 28.2931 34.163 27.3167 33.5016C27.2421 33.4498 27.1675 33.3963 27.0929 33.3409L27.1 33.3244C26.4626 32.8458 25.9266 32.2455 25.523 31.5583C25.3769 31.3085 25.2492 31.0484 25.1408 30.7801C25.1367 30.7712 25.1332 30.7618 25.1296 30.7524L24.2193 28.4776L22.7288 24.7529L22.5916 24.4091L22.5645 24.3408L18.5126 14.2092H18.5037C17.6903 12.7177 16.1268 11.7897 14.4276 11.7897C12.7284 11.7897 11.1649 12.7178 10.3515 14.2092L12.9166 7.79767C13.8326 5.51188 16.0477 4.01343 18.5108 4.01343C20.9739 4.01343 23.189 5.51188 24.105 7.79767L30.7121 24.3014L30.7197 24.3208L30.7556 24.4085L34.3306 33.3456Z" fill="url(#paint3_radial_2_26)"/>
<path opacity="0.2" fill-rule="evenodd" clip-rule="evenodd" d="M58.716 33.3438C58.6424 33.3997 58.5688 33.4521 58.4935 33.5027C57.6794 34.0536 56.7431 34.3972 55.7659 34.5035C55.6923 34.5112 55.6187 34.5176 55.5445 34.5229L55.4332 34.53C55.3608 34.5341 55.2885 34.5365 55.216 34.5376H55.0982H55.0118C54.9364 34.5376 54.8616 34.5347 54.7869 34.5306L54.682 34.5247C54.612 34.52 54.5425 34.5141 54.4731 34.507C53.4811 34.4063 52.5299 34.0604 51.705 33.5004C51.6295 33.4492 51.5548 33.395 51.4812 33.3403V33.3361V33.3361L51.4859 33.3232C51.0992 33.0327 50.7488 32.6969 50.4421 32.323L50.428 32.3053C50.237 32.0697 50.0644 31.8197 49.9116 31.5577C49.7657 31.3079 49.638 31.0477 49.5296 30.7794C49.5254 30.7706 49.5219 30.7606 49.5184 30.7518L48.6082 28.4771L47.1182 24.7524L46.9811 24.4086L46.9533 24.3403L42.9183 14.2502L42.9012 14.2078H42.8929C42.081 12.7182 40.5208 11.7903 38.8242 11.7878C37.1276 11.7854 35.5648 12.7088 34.7485 14.196L37.3077 7.7999C37.711 6.78958 38.3808 5.90759 39.2458 5.24794C39.3364 5.1773 39.4283 5.11078 39.523 5.0472C40.4939 4.39083 41.6352 4.0318 42.8069 4.01404H42.9218H43.01C45.0046 4.0505 46.852 5.07061 47.9453 6.7391C47.9707 6.77736 47.9954 6.81622 48.02 6.85684C48.0448 6.89746 48.0789 6.94926 48.1043 6.99635C48.1202 7.02285 48.1355 7.04991 48.1502 7.07701C48.2813 7.30965 48.3967 7.55077 48.4958 7.79873L51.0614 14.2113V14.2113L55.0995 24.3003V24.308V24.308L55.1042 24.3191L55.1401 24.4069L58.716 33.3438Z" fill="url(#paint4_radial_2_26)"/>
<path opacity="0.2" fill-rule="evenodd" clip-rule="evenodd" d="M83.1116 33.3426C83.0386 33.3985 82.9652 33.4509 82.8891 33.5016C81.9185 34.1583 80.7772 34.5175 79.6052 34.5353H79.4875H79.4004C78.2218 34.5211 77.0733 34.161 76.0975 33.4998C76.0228 33.4486 75.948 33.3944 75.8738 33.3397L75.8809 33.3226C75.0079 32.6684 74.3307 31.788 73.9222 30.7766C73.9181 30.7678 73.9145 30.7578 73.911 30.749L73.0008 28.4743L71.5108 24.7499L71.3735 24.4061L71.3465 24.3378L67.3142 14.2498L67.2972 14.208H67.2883C66.4762 12.718 64.9156 11.7901 63.2186 11.7881C61.5215 11.7861 59.9588 12.7105 59.1432 14.1986L61.703 7.80034C62.1066 6.79013 62.7767 5.90823 63.6417 5.24846C63.7324 5.17783 63.8242 5.11132 63.919 5.04773C64.8896 4.39116 66.0306 4.03193 67.2023 4.01402H67.3202H67.4084C69.1924 4.04712 70.8704 4.86728 71.9923 6.25448C72.02 6.28863 72.047 6.32395 72.0742 6.35869L72.0948 6.38518C72.1171 6.41461 72.1389 6.44404 72.1607 6.47406C72.1954 6.52116 72.2296 6.56884 72.2626 6.61711C72.2884 6.65478 72.3144 6.69246 72.3391 6.73072C72.3426 6.73602 72.3462 6.74131 72.3491 6.74661C72.3656 6.77075 72.3809 6.79429 72.3956 6.81903L72.4344 6.87789C72.6137 7.16969 72.7675 7.47634 72.8943 7.79444L75.4599 14.2068V14.2068L79.4957 24.2948L79.5039 24.3142L79.5393 24.4019L83.1116 33.3426Z" fill="url(#paint5_linear_2_26)"/>
<path fill-rule="evenodd" clip-rule="evenodd" d="M2.69809 33.3342L6.27051 24.4029L6.29994 24.3311V24.3311L12.915 7.79082C13.3179 6.77994 13.9879 5.89756 14.8534 5.238C14.944 5.16735 15.0359 5.10082 15.1306 5.03666C16.5114 4.10283 18.217 3.78233 19.8424 4.1513C21.4679 4.52026 22.8681 5.54575 23.7105 6.98424C23.8618 7.24245 23.9935 7.51167 24.1043 7.78964L26.6684 14.2017C26.6031 14.0839 26.5336 13.9662 26.46 13.8579C25.5605 12.502 24.0169 11.7161 22.3915 11.7864C20.766 11.8568 19.2961 12.7731 18.517 14.2017H18.5088L18.4735 14.2894L14.4584 24.3311L11.8943 30.7431C11.2172 32.4365 9.80967 33.732 8.06635 34.2665C6.32302 34.8011 4.43145 34.5172 2.92177 33.4944C2.84702 33.4437 2.77167 33.3896 2.69809 33.3342V33.3342Z" fill="url(#paint6_linear_2_26)"/>
<path fill-rule="evenodd" clip-rule="evenodd" d="M69.818 22.2789L70.465 23.8921L66.2825 34.3513C65.8938 34.2539 65.5156 34.1183 65.1536 33.9465L69.818 22.2789Z" fill="#EB795B"/>
<path fill-rule="evenodd" clip-rule="evenodd" d="M78.3283 4.23521L75.2891 11.8315L74.6449 10.2198L76.7626 4.92227C77.2491 4.61975 77.7765 4.38839 78.3283 4.23521H78.3283Z" fill="#EB795B"/>
<path fill-rule="evenodd" clip-rule="evenodd" d="M71.0391 25.3325L71.1102 25.5091V25.5091L67.5022 34.5274C67.2529 34.5183 67.0043 34.4933 66.7583 34.4526L70.7233 24.5452L71.0391 25.3325Z" fill="#EB795B"/>
<path fill-rule="evenodd" clip-rule="evenodd" d="M79.7068 4.01131L75.9363 13.4597L75.5506 12.4943L78.901 4.09731C79.1672 4.04981 79.4365 4.02109 79.7068 4.01131Z" fill="#EB795B"/>
<path fill-rule="evenodd" clip-rule="evenodd" d="M71.4139 26.2696L71.6275 26.804L68.5589 34.4811C68.412 34.5015 68.2633 34.5163 68.1132 34.5253L71.4139 26.2696Z" fill="#EB795B"/>
<path fill-rule="evenodd" clip-rule="evenodd" d="M80.7195 4.05808L76.4494 14.7486L76.2358 14.2137L80.3083 4.01684C80.4466 4.0247 80.5838 4.03844 80.7194 4.05808H80.7195Z" fill="#EB795B"/>
<path fill-rule="evenodd" clip-rule="evenodd" d="M71.998 27.7165L72.1253 28.0345V28.0345L69.6476 34.2292C69.5523 34.261 69.4555 34.2904 69.3574 34.3175L71.998 27.7165Z" fill="#EB795B"/>
<path fill-rule="evenodd" clip-rule="evenodd" d="M81.6296 4.25411L76.9389 15.98L76.8117 15.6616L81.3988 4.19171C81.477 4.21113 81.5536 4.23233 81.6296 4.25412L81.6296 4.25411Z" fill="#EB795B"/>
<path fill-rule="evenodd" clip-rule="evenodd" d="M72.4821 28.93L72.5233 29.0318L70.6116 33.8041C70.5773 33.8235 70.5426 33.8418 70.5072 33.86L72.4821 28.93Z" fill="#EB795B"/>
<path fill-rule="evenodd" clip-rule="evenodd" d="M82.3301 4.49997L77.341 16.9772L77.3004 16.8759L82.2611 4.4729L82.3301 4.49997Z" fill="#EB795B"/>
<path fill-rule="evenodd" clip-rule="evenodd" d="M51.0643 14.2092C50.9995 14.0915 50.9306 13.9779 50.8576 13.8678C49.9739 12.5347 48.466 11.7504 46.8669 11.7921C45.2679 11.8339 43.803 12.6958 42.9901 14.0732L42.9642 14.1374L42.9347 14.2092V14.2092L42.92 14.2469L36.3203 30.7496C35.9165 31.7595 35.2467 32.6411 34.3819 33.3009C34.3636 33.3156 34.3448 33.3297 34.3266 33.3427C34.2535 33.3986 34.18 33.451 34.104 33.5016C33.1332 34.1583 31.9918 34.5176 30.8197 34.5353H30.7049H30.6177C29.438 34.5215 28.2883 34.1612 27.3117 33.4993C27.2369 33.448 27.1621 33.3939 27.0879 33.3391C26.7715 33.1002 26.4807 32.8291 26.2201 32.5303C26.0222 32.3039 25.8408 32.0638 25.6772 31.8115C25.6226 31.7272 25.5696 31.6414 25.5182 31.5543C25.3722 31.3044 25.2445 31.0444 25.1361 30.7761C25.1319 30.7672 25.1284 30.7572 25.1249 30.7484L24.2152 28.4738L22.5872 24.4055L22.5601 24.3372C22.6255 24.455 22.6949 24.5727 22.7685 24.681C23.6525 26.013 25.1598 26.7966 26.7581 26.755C28.3565 26.7134 29.8209 25.8524 30.6343 24.4761L30.6607 24.409L30.6908 24.3372V24.3372L30.7055 24.3001L34.7482 14.1968L37.3076 7.80094C37.7109 6.79066 38.3808 5.90869 39.2459 5.24907C39.3366 5.17843 39.4285 5.11191 39.5233 5.04834C40.4945 4.39137 41.6363 4.03192 42.8088 4.01404H42.9236H43.0119C45.0067 4.05051 46.8544 5.07056 47.9477 6.739C47.973 6.77726 47.9978 6.81611 48.0225 6.85673C48.0473 6.89734 48.0814 6.94915 48.1067 6.99625C48.1226 7.02273 48.1379 7.0498 48.1527 7.07689C48.2854 7.31032 48.4019 7.55264 48.5012 7.80212L51.0643 14.2092Z" fill="url(#paint7_linear_2_26)"/>
<path fill-rule="evenodd" clip-rule="evenodd" d="M75.4622 14.2056C75.3975 14.0879 75.3286 13.9743 75.2555 13.8641C74.372 12.5307 72.8641 11.7463 71.2652 11.788C69.6662 11.8298 68.2014 12.6919 67.3886 14.0696L67.3633 14.1338L67.3339 14.2056V14.2056L67.3192 14.2427L60.7174 30.7499C60.3141 31.7602 59.6442 32.6421 58.7791 33.3017C58.761 33.3164 58.7421 33.3306 58.7245 33.3435C58.6509 33.3995 58.5772 33.4519 58.5018 33.5025C57.5924 34.1181 56.5318 34.473 55.435 34.5288C55.3626 34.5329 55.2902 34.5353 55.2177 34.5364H55.1H55.0135C54.9381 34.5364 54.8633 34.5335 54.7885 34.5294C53.6884 34.4745 52.6245 34.1185 51.7129 33.5001C51.6375 33.4489 51.5627 33.3948 51.4892 33.34L51.4839 33.3359C51.1694 33.098 50.8803 32.8283 50.6213 32.531C50.5608 32.4615 50.502 32.3906 50.4446 32.3184L50.4305 32.3008C50.2431 32.0652 50.0725 31.8167 49.9201 31.5571C49.7739 31.3073 49.6462 31.0472 49.538 30.7787C49.5339 30.7699 49.5303 30.7599 49.5262 30.751L48.6166 28.4759L46.9893 24.4067L46.9616 24.3384C47.027 24.4561 47.0964 24.5739 47.1706 24.6822C48.0543 26.0146 49.5615 26.7984 51.1596 26.7567C52.7578 26.7151 54.2221 25.8539 55.0352 24.4773L55.0623 24.4102L55.0918 24.3384V24.3384L55.1035 24.3095L55.1071 24.3013L59.1483 14.198L61.7082 7.79827C62.1119 6.78782 62.7819 5.90572 63.647 5.24581C63.7377 5.17515 63.8295 5.10862 63.9243 5.04503C64.8949 4.3883 66.0361 4.02899 67.2078 4.01108H67.3256H67.4139C69.1979 4.04418 70.876 4.86454 71.998 6.25206C72.0256 6.28622 72.0527 6.32155 72.0798 6.35628L72.1004 6.38278C72.1227 6.41222 72.1446 6.44166 72.1663 6.47169C72.201 6.5188 72.2352 6.56649 72.2682 6.61477C72.2941 6.65244 72.32 6.69013 72.3448 6.7284C72.3483 6.7337 72.3518 6.739 72.3547 6.7443C72.3713 6.76844 72.3865 6.79199 72.4013 6.81673L72.4401 6.87561C72.4637 6.9133 72.4866 6.95156 72.509 6.98984C72.5255 7.01809 72.5402 7.04872 72.5561 7.07462L72.5773 7.11172C72.7005 7.33255 72.8092 7.56109 72.9029 7.79591L75.4622 14.2056Z" fill="url(#paint8_linear_2_26)"/>
<path fill-rule="evenodd" clip-rule="evenodd" d="M65.6769 20.9967C65.2509 20.9967 65.0096 20.5636 65.1643 20.1659C65.3997 19.5597 65.4202 19.1644 66.1336 19.1644H68.5259C69.2384 19.1644 69.2438 19.5338 69.4945 20.1659C69.6515 20.5625 69.4086 20.9967 68.9824 20.9967H65.6769Z" fill="url(#paint9_linear_2_26)"/>
<path fill-rule="evenodd" clip-rule="evenodd" d="M41.2637 20.9967C40.837 20.9967 40.5959 20.5636 40.7509 20.1659C40.9867 19.5597 41.0073 19.1644 41.7212 19.1644H44.115C44.8295 19.1644 44.8348 19.5338 45.0859 20.1659C45.2427 20.5625 44.9998 20.9967 44.5731 20.9967H41.2637Z" fill="url(#paint10_linear_2_26)"/>
<path fill-rule="evenodd" clip-rule="evenodd" d="M85.8153 36.3071V37.1208H85.6469V36.8982L85.664 36.5143L85.4438 37.1208H85.326L85.1064 36.515L85.1235 36.8983V37.1209H84.9551V36.3084H85.1747L85.3837 36.8972L85.5921 36.3084L85.8153 36.3071ZM84.8623 36.3071V36.4426H84.6132V37.1208H84.4454V36.4437H84.1987V36.3083L84.8623 36.3071ZM63.7947 43.1146C63.7928 43.1194 63.7907 43.1241 63.7883 43.1288C63.7883 43.1369 63.7812 43.1446 63.7782 43.1529C63.7753 43.161 63.7659 43.1823 63.7588 43.197C63.7565 43.2031 63.7535 43.2091 63.75 43.2146C63.5263 43.6729 63.0697 43.9718 62.5602 43.9935H62.5078L61.1968 43.9988H61.0561C60.9031 43.992 60.7523 43.9599 60.6099 43.9035L60.5957 43.897L60.5716 43.887C60.5563 43.8811 60.5422 43.8746 60.5274 43.8675C60.5213 43.8652 60.5153 43.8623 60.5098 43.8587C60.0988 43.6582 59.8127 43.2683 59.7445 42.8161V42.2556L59.7374 40.2993V40.2895L59.7333 39.2598V39.1721L59.7239 37.0351V37.0227L59.7615 37.0127L59.7857 37.0067C60.0568 36.9471 60.3397 36.9694 60.5981 37.0709L60.6122 37.0774L60.6364 37.0875C60.6517 37.0933 60.6658 37.0998 60.6805 37.1069C60.6867 37.1092 60.6926 37.1122 60.6982 37.1157C61.1103 37.3167 61.3967 37.7082 61.4635 38.1618C61.4709 38.2094 61.4756 38.2574 61.4776 38.3055C61.4776 38.3143 61.4776 38.3243 61.4776 38.3332C61.4776 38.342 61.4776 38.3496 61.4776 38.3579L61.4841 39.978V39.9933V40.2877V40.582V40.5973L61.4776 42.1644V42.2451H61.6949L63.8319 42.2357H63.8442C63.8478 42.248 63.8513 42.261 63.8542 42.2734C63.8572 42.2857 63.8583 42.2892 63.8601 42.2975C63.9211 42.5706 63.8984 42.8557 63.7948 43.1158L63.7947 43.1146ZM58.63 43.1144C58.6283 43.1193 58.6262 43.124 58.6235 43.1285C58.6235 43.1367 58.6171 43.1444 58.6141 43.1527C58.6112 43.1608 58.6018 43.1821 58.5941 43.1968C58.592 43.2029 58.5892 43.2088 58.5859 43.2144C58.3624 43.6725 57.9064 43.9717 57.3973 43.9945H57.3443L56.0332 43.9997H55.8931C55.7401 43.993 55.5893 43.9608 55.4469 43.9044L55.4322 43.8979L55.408 43.8879L55.3639 43.8685C55.3578 43.866 55.3519 43.8631 55.3462 43.8597C54.9354 43.6589 54.6493 43.2691 54.5809 42.8171V42.2566L54.5715 40.3022V40.2922L54.5674 39.2625V39.1747L54.558 37.0378V37.0254L54.5951 37.0154L54.6192 37.0096C54.8906 36.9499 55.1735 36.9722 55.4322 37.0737L55.4457 37.0802C55.4546 37.0802 55.4616 37.0872 55.4704 37.0902L55.5146 37.1096C55.5206 37.1118 55.5264 37.1148 55.5317 37.1184C55.9438 37.3195 56.2302 37.7109 56.297 38.1646C56.3042 38.2121 56.3087 38.2601 56.3105 38.3082C56.3111 38.3174 56.3111 38.3267 56.3105 38.3358V38.3606L56.3176 39.9807V40.6036L56.3105 42.1707V42.2513H56.5278L58.6653 42.242H58.6777C58.6812 42.2543 58.6848 42.2672 58.6877 42.2796C58.6907 42.2919 58.6912 42.2954 58.6936 42.3037C58.7542 42.5746 58.732 42.8574 58.63 43.1155L58.63 43.1144ZM51.815 40.816C51.8153 41.5929 51.1855 42.2227 50.4086 42.2227C49.6317 42.2227 49.002 41.5929 49.002 40.816L49.0022 40.1736C48.984 39.6584 49.2484 39.1744 49.6918 38.9113C50.1352 38.6483 50.6867 38.6483 51.1301 38.9113C51.5735 39.1744 51.8379 39.6584 51.8197 40.1736L51.815 40.816ZM53.562 40.3847V40.3694V39.8395C53.5585 38.7416 52.938 37.7244 51.9419 37.2633L51.916 37.2516C51.5509 37.0876 51.1554 37.0022 50.7551 37.0008H50.0622C49.6619 37.0022 49.2663 37.0879 48.9013 37.2522L48.876 37.2633C47.8799 37.7244 47.2594 38.7416 47.2559 39.8395V40.3694V40.3847V40.679V40.9733V40.9887V41.1505C47.2541 41.9605 47.5998 42.7322 48.2054 43.2699C48.7209 43.7214 49.3817 43.972 50.0669 43.9757H50.3801H50.439H50.7522C51.5005 43.9781 52.2187 43.6812 52.7469 43.1511C53.2751 42.6211 53.5694 41.9018 53.5644 41.1535V40.9769V40.6825L53.562 40.3847ZM75.5228 42.2334V43.9819H75.1631L74.2594 43.9778H73.9462C73.1979 43.9801 72.4797 43.6833 71.9515 43.1531C71.4233 42.6231 71.129 41.9038 71.134 41.1555V40.9789V40.6845V40.3902V40.3749V39.8792V39.8427C71.1369 38.7448 71.758 37.7281 72.7541 37.2672C73.1254 37.0936 73.5299 37.0024 73.9397 36.9999H74.1417L75.1636 36.9952H75.7924H76.3299H76.3823C76.8917 37.0169 77.3483 37.3158 77.572 37.774C77.5755 37.7796 77.5785 37.7856 77.5809 37.7916C77.5879 37.8064 77.5944 37.8205 77.6003 37.8358C77.6062 37.8512 77.6074 37.8517 77.6103 37.86C77.6127 37.8646 77.6149 37.8692 77.6168 37.8741C77.7188 38.1324 77.7412 38.4154 77.681 38.6865C77.681 38.6947 77.6774 38.7024 77.6751 38.7106C77.6727 38.7189 77.6686 38.736 77.6651 38.7483H77.6527L76.6925 38.7442L75.5151 38.7388H74.3165C73.9351 38.7364 73.5685 38.8866 73.2986 39.1562C73.0288 39.4258 72.878 39.7921 72.8801 40.1735V40.5663V40.8158C72.8824 41.195 73.0356 41.5576 73.3058 41.8236C73.576 42.0896 73.9409 42.237 74.3201 42.2334H75.5228ZM77.7155 42.5585V42.6115C77.7131 42.778 77.6804 42.9426 77.619 43.0973C77.6171 43.1022 77.6149 43.1068 77.6125 43.1115C77.6125 43.1197 77.6054 43.1274 77.6025 43.1356C77.5995 43.1438 77.5901 43.165 77.5831 43.1797C77.5807 43.1859 77.5777 43.1918 77.5742 43.1974C77.35 43.6556 76.8928 43.9542 76.3831 43.9752H76.3307H75.9774V43.6702V43.6549L75.9709 42.7717L75.9668 42.3595V42.2306L75.9574 40.5466V40.5342L75.9951 40.5243L76.0192 40.5184C76.2904 40.4581 76.5734 40.4805 76.8318 40.5826L76.8459 40.589L76.87 40.599C76.8853 40.605 76.8995 40.6114 76.9142 40.6185C76.9203 40.6208 76.9263 40.6238 76.9318 40.6273C77.389 40.8519 77.6867 41.3083 77.7079 41.8173C77.7079 41.826 77.7079 41.8361 77.7079 41.8449C77.7079 41.8538 77.7079 41.8614 77.7079 41.8697L77.7144 42.4626V42.5515C77.7146 42.5539 77.7146 42.5562 77.7144 42.5585L77.7155 42.5585ZM80.2278 39.1675C80.2274 39.2841 80.2734 39.3961 80.3557 39.4788C80.438 39.5614 80.5498 39.6078 80.6664 39.6078H83.0265C83.2824 39.6078 83.4898 39.8153 83.4898 40.0711L83.4898 40.9065C83.4898 41.1624 83.2824 41.3698 83.0265 41.3698H80.657C80.4153 41.3698 80.2191 41.565 80.2178 41.8067V41.8067C80.2175 41.9237 80.2639 42.036 80.3466 42.1188C80.4294 42.2015 80.5417 42.2479 80.6587 42.2476L83.8996 42.2351H83.9119C83.9155 42.2476 83.919 42.2605 83.9219 42.2729C83.9249 42.2852 83.9261 42.2888 83.9278 42.297C83.988 42.5681 83.9657 42.8511 83.8637 43.1094C83.8617 43.1143 83.8596 43.119 83.8572 43.1235C83.8572 43.1318 83.8501 43.1395 83.8472 43.1476C83.8442 43.1559 83.8348 43.1771 83.8277 43.1919C83.8254 43.1979 83.8224 43.2039 83.8189 43.2095C83.5952 43.6676 83.1386 43.9666 82.6292 43.9884H82.5768L80.9567 43.9948H80.9413H80.647H80.3526H80.043C79.8916 43.9875 79.7424 43.9552 79.6015 43.8995L79.5873 43.8935L79.5632 43.8829C79.5479 43.8771 79.5338 43.8707 79.519 43.8635C79.5129 43.8614 79.507 43.8586 79.5014 43.8553C79.0434 43.6313 78.7446 43.1749 78.7225 42.6655C78.7225 42.6561 78.7225 42.6461 78.7225 42.6373C78.7225 42.6284 78.7225 42.6214 78.7225 42.6131V42.2558V41.3727V40.6075V40.592V40.2978V40.0034V39.9881V39.6114L78.726 38.7283V38.371C78.726 38.3627 78.726 38.3539 78.726 38.3462C78.726 38.3386 78.726 38.3274 78.726 38.3186C78.7478 37.8091 79.0467 37.3525 79.5049 37.1288C79.5105 37.1253 79.5164 37.1223 79.5226 37.12C79.5373 37.1129 79.5514 37.1064 79.5667 37.1004L79.5909 37.0906L79.605 37.084C79.7456 37.0284 79.8944 36.9965 80.0453 36.9893H80.3562H80.6505H80.9449H80.9602L82.5803 36.9958H82.6327C83.1421 37.0175 83.5987 37.3164 83.8225 37.7746C83.826 37.7802 83.8289 37.7861 83.8313 37.7923C83.8384 37.8069 83.8448 37.821 83.8507 37.8365C83.8566 37.8517 83.8578 37.8523 83.8607 37.8606C83.8631 37.8651 83.8653 37.8698 83.8672 37.8747C83.9692 38.133 83.9916 38.416 83.9314 38.6871C83.9314 38.6953 83.9278 38.703 83.9255 38.7112C83.9231 38.7195 83.919 38.7365 83.9155 38.7489H83.9031L80.6717 38.7365C80.5553 38.736 80.4435 38.7819 80.3609 38.8639C80.2783 38.946 80.2317 39.0574 80.2314 39.1739L80.2278 39.1675ZM66.4041 39.1675C66.4037 39.2841 66.4499 39.3961 66.5323 39.4788C66.6147 39.5614 66.7265 39.6078 66.8432 39.6078H69.2033C69.4592 39.6078 69.6666 39.8153 69.6666 40.0711V40.9065C69.6663 41.1623 69.4591 41.3695 69.2033 41.3698H66.8332C66.5918 41.3702 66.3959 41.5652 66.3946 41.8067V41.8067C66.3942 41.9236 66.4404 42.036 66.523 42.1188C66.6057 42.2015 66.718 42.2479 66.835 42.2476L70.0764 42.2351H70.0887C70.0923 42.2476 70.0958 42.2605 70.0987 42.2729C70.1017 42.2852 70.1029 42.2888 70.1046 42.297C70.1648 42.5681 70.1425 42.8511 70.0405 43.1094C70.0386 43.1143 70.0364 43.119 70.034 43.1235C70.031 43.1318 70.0269 43.1395 70.024 43.1476C70.021 43.1559 70.0116 43.1771 70.0045 43.1919C70.0022 43.1979 69.9992 43.2039 69.9957 43.2095C69.772 43.6676 69.3154 43.9666 68.806 43.9884H68.7536L67.1334 43.9948H67.1181H66.8238H66.5294H66.2198C66.0684 43.9875 65.9192 43.9552 65.7782 43.8995L65.7641 43.8935L65.74 43.8829C65.7247 43.8771 65.7105 43.8707 65.6958 43.8635C65.6897 43.8614 65.6838 43.8586 65.6782 43.8553C65.2202 43.6313 64.9214 43.1749 64.8993 42.6655C64.8993 42.6561 64.8993 42.6461 64.8993 42.6373C64.8993 42.6284 64.8993 42.6214 64.8993 42.6131V42.2558V41.3727V40.6075V40.592V40.2978V40.0034V39.9881V39.6114L64.9028 38.7283V38.371C64.9028 38.3627 64.9028 38.3539 64.9028 38.3462C64.9028 38.3386 64.9028 38.3274 64.9028 38.3186C64.9246 37.8091 65.2235 37.3525 65.6817 37.1288C65.6873 37.1253 65.6932 37.1223 65.6993 37.12C65.7141 37.1129 65.7282 37.1064 65.7435 37.1004L65.7676 37.0906L65.7818 37.084C65.9224 37.0284 66.0711 36.9965 66.2221 36.9893H66.533H66.8273H67.1217H67.137L68.7571 36.9958H68.8095C69.316 37.0178 69.7703 37.3137 69.9951 37.7681C69.9986 37.7737 70.0016 37.7796 70.004 37.7858C70.011 37.8005 70.0175 37.8146 70.0234 37.8299C70.0293 37.8452 70.0304 37.8459 70.0334 37.854C70.0358 37.8586 70.0379 37.8634 70.0398 37.8682C70.1419 38.1265 70.1642 38.4095 70.104 38.6806C70.104 38.6889 70.1005 38.6965 70.0981 38.7048C70.0958 38.713 70.0917 38.7301 70.0881 38.7424H70.0758L66.8444 38.7301C66.6018 38.7291 66.4044 38.9249 66.4034 39.1675L66.4041 39.1675ZM26.7548 40.388L27.1775 39.3281L27.1846 39.3104L27.6156 40.3874L26.7548 40.388ZM30.8291 43.7135L30.0349 41.7296L30.009 41.6649L30.0026 41.6484V41.6484L28.476 37.833C28.4637 37.8018 28.4502 37.7741 28.436 37.7423L28.4178 37.7076C28.4083 37.6893 28.3989 37.6711 28.3889 37.6534C28.3873 37.6512 28.386 37.6489 28.3848 37.6464C28.3783 37.6352 28.3713 37.6252 28.3648 37.614C28.3583 37.6028 28.3483 37.5869 28.3395 37.5739C28.3306 37.561 28.3248 37.5539 28.3177 37.5434L28.2847 37.4986L28.2677 37.4774C28.2541 37.4604 28.2406 37.4439 28.2259 37.4274L28.2159 37.4167C28.1592 37.3536 28.0967 37.2959 28.0292 37.2442C28.0074 37.2278 27.9863 37.2125 27.9651 37.1978C27.9439 37.1831 27.9097 37.1618 27.8809 37.1454V37.1454C27.8726 37.14 27.8638 37.1354 27.855 37.1307L27.8338 37.1189C27.485 36.9338 27.074 36.9057 26.7033 37.0417C26.3326 37.1778 26.0373 37.4651 25.8911 37.8318L25.2988 39.3112L25.31 39.2929L24.3681 41.6477V41.6477L24.3616 41.6642L24.3357 41.729L23.5421 43.713L23.5374 43.7247C23.5539 43.7376 23.5716 43.75 23.5892 43.7624C23.8196 43.9167 24.0908 43.9987 24.3681 43.9978H24.4099C24.4264 43.9978 24.4417 43.9978 24.4576 43.9978C24.4642 43.9987 24.4709 43.9987 24.4776 43.9978C25.0048 43.9565 25.4629 43.6198 25.6597 43.129L26.2484 41.6495L26.2537 41.6377H27.6984H28.1105L28.1134 41.6454L28.1193 41.6613L28.1511 41.7408L28.4949 42.6003L28.705 43.1249C28.705 43.1249 28.705 43.1295 28.705 43.1313C28.7301 43.1932 28.7596 43.2533 28.7934 43.3108C28.8864 43.4695 29.0101 43.6082 29.1572 43.7188V43.7229L29.209 43.76C29.4088 43.8956 29.6405 43.9767 29.8813 43.9955H29.8889C29.8956 43.9963 29.9023 43.9963 29.909 43.9955H29.9566H29.9984C30.2759 43.9964 30.5473 43.9144 30.7779 43.76L30.8297 43.7224L30.8291 43.7135ZM12.9888 40.388L13.4116 39.3281L13.4187 39.3104L13.8497 40.3874L12.9888 40.388ZM17.0649 43.7135L16.2707 41.7296L16.2454 41.6649L16.2389 41.6484V41.6484L14.7119 37.833C14.6995 37.8018 14.6859 37.7741 14.6718 37.7423L14.6536 37.7076C14.6442 37.6893 14.6347 37.6711 14.6247 37.6534C14.6236 37.651 14.6222 37.6486 14.6206 37.6464C14.6141 37.6352 14.6071 37.6252 14.6006 37.614C14.5941 37.6028 14.5841 37.5869 14.5753 37.5739C14.5664 37.561 14.5606 37.5539 14.5535 37.5434C14.5464 37.5328 14.5323 37.5133 14.5205 37.4986L14.5035 37.4774C14.4899 37.4604 14.4764 37.4439 14.4617 37.4274L14.4517 37.4167C14.395 37.3536 14.3325 37.2959 14.265 37.2442C14.2438 37.2278 14.2221 37.2125 14.2009 37.1978C14.1797 37.1831 14.1455 37.1618 14.1167 37.1454V37.1454L14.0902 37.1307L14.069 37.1189C13.7202 36.9338 13.3092 36.9057 12.9385 37.0417C12.5678 37.1778 12.2725 37.4651 12.1263 37.8318L11.5376 39.3112L11.5482 39.2929L10.6063 41.6477V41.6477L10.5998 41.6642L10.5745 41.729L9.7803 43.713L9.77559 43.7247L9.82741 43.7624C10.0578 43.9167 10.329 43.9987 10.6063 43.9978H10.6486H10.6963C10.703 43.9987 10.7097 43.9987 10.7163 43.9978C11.2434 43.9565 11.7013 43.6197 11.8979 43.129L12.4895 41.6495L12.4942 41.6377H13.9389H14.351V41.6454L14.3569 41.6613L14.3887 41.7408L14.7325 42.6003L14.9426 43.1249C14.9426 43.1249 14.9426 43.1295 14.9426 43.1313C14.9677 43.1932 14.9972 43.2533 15.031 43.3108C15.124 43.4695 15.2477 43.6082 15.3948 43.7188V43.7229L15.4466 43.76C15.6465 43.8954 15.8782 43.9766 16.1189 43.9955H16.1295C16.1361 43.9963 16.1428 43.9963 16.1495 43.9955H16.1972H16.2395C16.5168 43.9963 16.788 43.9144 17.0184 43.76L17.0702 43.7224L17.0649 43.7135ZM10.1257 37.2331L10.121 37.2449L9.32683 39.2288L9.30093 39.2936L9.29445 39.31V39.31L7.77088 43.126C7.67784 43.3591 7.52319 43.5627 7.32347 43.7148L7.25989 43.7612C7.08971 43.8758 6.89633 43.9514 6.69355 43.9826L6.66176 43.9867C6.60458 43.9946 6.54699 43.9994 6.48927 44.0008H6.44277C6.17091 43.9975 5.90602 43.9145 5.68098 43.7618C5.66333 43.7501 5.64625 43.7377 5.62917 43.7248V43.7212C5.48209 43.6104 5.35843 43.4715 5.26535 43.3126C5.2317 43.256 5.20219 43.1969 5.17705 43.136C5.17705 43.136 5.17705 43.1313 5.17705 43.1296L4.96688 42.6044L4.62308 41.745L4.59188 41.6637L4.58599 41.6484L3.64996 39.3106V39.3106L3.64172 39.3307L2.71392 41.6473L2.12227 43.1266C1.96591 43.5172 1.64111 43.8159 1.23886 43.9392C0.836619 44.0625 0.400183 43.9971 0.0518013 43.7612C0.0341443 43.7494 0.0170671 43.7372 0 43.7241L0.824181 41.6637L0.83125 41.6472V41.6472L2.35775 37.8306C2.3836 37.766 2.4143 37.7034 2.44959 37.6434C2.45136 37.6412 2.45294 37.6388 2.4543 37.6364C2.47019 37.6098 2.48667 37.584 2.50375 37.5592L2.51317 37.5457C2.52965 37.5227 2.54613 37.5004 2.5638 37.4786L2.57616 37.4632C2.59323 37.4426 2.61089 37.4227 2.62914 37.4044L2.64386 37.3891C2.6621 37.3697 2.68094 37.3514 2.70273 37.3303L2.71803 37.3161C2.73805 37.2978 2.75866 37.2808 2.77984 37.2637L2.79397 37.2519L2.8081 37.2407C2.8287 37.2242 2.8499 37.209 2.87168 37.1942C3.10247 37.0398 3.37406 36.9579 3.65171 36.9587C3.68585 36.9587 3.71999 36.9587 3.75414 36.9628H3.77357L3.85304 36.9717L3.8813 36.9764C3.90484 36.9806 3.92781 36.9847 3.95077 36.99L3.98138 36.9971C4.00317 37.0023 4.02553 37.0082 4.04732 37.0147L4.07675 37.0241C4.09912 37.0311 4.12091 37.0388 4.14269 37.047L4.16919 37.0571C4.19332 37.0665 4.21687 37.0771 4.24042 37.0882L4.25807 37.0959C4.31728 37.1247 4.37434 37.1578 4.4288 37.1948V37.1948L4.44115 37.2042C4.46235 37.219 4.48296 37.2336 4.50002 37.2496L4.52652 37.2707L4.57361 37.3108L4.60187 37.3373L4.64308 37.3779C4.6525 37.3873 4.66192 37.3973 4.67074 37.4074C4.67957 37.4173 4.69665 37.4362 4.70901 37.4509C4.72137 37.4656 4.72608 37.4709 4.73373 37.481C4.74138 37.491 4.76023 37.5151 4.77318 37.5328C4.78613 37.5505 4.78553 37.5498 4.79201 37.5586C4.80967 37.5852 4.82734 37.6117 4.84324 37.6393V37.6393V37.6422C4.87803 37.7019 4.90832 37.7641 4.9339 37.8283L5.5226 39.3077V39.3077L6.45451 41.6366V41.6413L6.4604 41.656L6.46688 41.6448V41.6448L6.47571 41.6243L7.40175 39.3077L8.00634 37.8306C8.20266 37.3397 8.66072 37.0028 9.18787 36.9617C9.19453 36.9611 9.20123 36.9611 9.20789 36.9617C9.22378 36.9608 9.2397 36.9608 9.25557 36.9617H9.29738C9.57558 36.9617 9.84706 37.0451 10.0771 37.2009C10.0933 37.2066 10.111 37.2202 10.1257 37.2332L10.1257 37.2331ZM32.441 41.7285L31.6468 43.7124L31.6427 43.7254C31.6557 43.7356 31.6695 43.7455 31.6831 43.7552C31.6868 43.7578 31.6904 43.7604 31.6939 43.763C31.9246 43.9173 32.1959 43.9993 32.4734 43.9985H32.5152H32.5629C32.5695 43.9994 32.5763 43.9994 32.5829 43.9985C33.0912 43.9585 33.5369 43.6436 33.7444 43.1778L33.755 43.1526L33.8777 42.8457L33.9999 43.1511L34.0105 43.1765C34.2182 43.6421 34.6638 43.9569 35.172 43.9971C35.1786 43.998 35.1854 43.998 35.192 43.9971H35.2397H35.2815C35.559 43.998 35.8304 43.916 36.0609 43.7616L36.1127 43.7239L36.108 43.714L35.3139 41.7301L35.2909 41.6711L35.288 41.6647L35.2815 41.6482L34.8176 40.4885L35.2768 39.333L35.285 39.3124L35.308 39.2536L36.1022 37.269L36.1069 37.2578L36.055 37.2202C35.8246 37.0655 35.5531 36.9834 35.2756 36.9847H35.2338H35.1861C35.1795 36.9841 35.1728 36.9841 35.1661 36.9847C34.658 37.0248 34.2125 37.3397 34.0052 37.8053C34.0019 37.8118 33.9987 37.8198 33.996 37.8263C33.9953 37.8281 33.9946 37.8298 33.994 37.8313C33.9929 37.8338 33.9918 37.8365 33.9906 37.8392C33.9886 37.8439 33.9864 37.8487 33.9846 37.8536L33.8744 38.1305L33.7644 37.8552C33.7621 37.8494 33.7599 37.8442 33.7574 37.8383C33.7566 37.8366 33.7558 37.8347 33.755 37.8328C33.7539 37.8303 33.7528 37.8276 33.7517 37.8248C33.7492 37.8188 33.7466 37.8126 33.7438 37.8069C33.5365 37.3416 33.0913 37.0269 32.5835 36.9868C32.5768 36.9863 32.5701 36.9863 32.5634 36.9868H32.5158H32.474C32.1965 36.9858 31.925 37.0678 31.6945 37.2223C31.691 37.2249 31.6874 37.2274 31.6838 37.23C31.6702 37.2398 31.6564 37.2497 31.6433 37.26L31.6474 37.2712L32.4416 39.2557L32.4645 39.3146L32.4734 39.3352L32.9341 40.4874L32.4704 41.6467L32.464 41.6631V41.6696L32.441 41.7285ZM23.9153 37.1955C23.6848 37.0407 23.4134 36.9583 23.1358 36.9588H23.094H23.0463C23.0397 36.9582 23.033 36.9582 23.0263 36.9588C22.4993 37.0001 22.0413 37.3369 21.8448 37.8277L21.252 39.3118L20.3271 41.6277L20.3183 41.6484V41.6484L20.3101 41.6277L19.3834 39.3118L18.7947 37.8318C18.5978 37.3411 18.1397 37.0044 17.6126 36.9628C17.606 36.9623 17.5993 36.9623 17.5926 36.9628C17.5767 36.9628 17.5614 36.9628 17.5449 36.9628H17.5031C17.2242 36.9608 16.9511 37.0425 16.719 37.1972C16.7019 37.2096 16.6842 37.2219 16.6678 37.2348L16.6719 37.246L17.466 39.2306L17.4919 39.2947L17.4984 39.3119V39.3119L19.0255 43.1272C19.0379 43.1578 19.0508 43.1861 19.0655 43.2178L19.0838 43.2526C19.0932 43.2708 19.1026 43.2891 19.1126 43.3067L19.1162 43.3138C19.1226 43.3244 19.1297 43.335 19.1368 43.3456C19.1438 43.3562 19.1533 43.3727 19.1621 43.3862C19.1709 43.3998 19.1768 43.4063 19.1839 43.4169C19.1909 43.4275 19.2051 43.4468 19.2163 43.4616L19.2339 43.4827C19.2474 43.4999 19.261 43.5163 19.2751 43.5328L19.2857 43.544C19.3426 43.6069 19.405 43.6644 19.4723 43.7159C19.4935 43.7324 19.5147 43.7477 19.5359 43.7624C19.5571 43.7772 19.5918 43.7977 19.6201 43.8142H19.6254C19.6478 43.8271 19.6701 43.8395 19.6937 43.8508L19.7096 43.8584C19.729 43.8683 19.749 43.8772 19.7685 43.8861L19.7891 43.8949L19.8479 43.9173L19.8697 43.9249C19.8944 43.9337 19.9192 43.9408 19.9445 43.9478L19.9798 43.9567L20.0293 43.9685L20.0758 43.9767L20.1005 43.9815H20.1135L20.1441 43.9855C20.1664 43.9855 20.1894 43.9909 20.2124 43.9926C20.2449 43.995 20.2773 43.9962 20.3095 43.9962H20.3195C20.3525 43.9962 20.3848 43.995 20.4166 43.9926C20.4402 43.9926 20.4626 43.9884 20.4849 43.9855L20.5155 43.9815H20.5285L20.5538 43.9767L20.5997 43.9685L20.6492 43.9567L20.6845 43.9478C20.7098 43.9408 20.7345 43.9337 20.7593 43.9249L20.7811 43.9173L20.8399 43.8949L20.8605 43.8861C20.8811 43.8772 20.9012 43.8683 20.9194 43.8584L20.9353 43.8508C20.9583 43.8395 20.9806 43.8271 21.003 43.8142H21.0083C21.0371 43.7977 21.0672 43.7807 21.0925 43.7624C21.1178 43.7441 21.1349 43.7324 21.1566 43.7159C21.224 43.6642 21.2864 43.6065 21.3433 43.5434L21.3533 43.5328C21.3674 43.5163 21.3815 43.4999 21.3951 43.4827L21.4121 43.4616C21.4233 43.4468 21.4339 43.4316 21.4445 43.4169C21.4551 43.4021 21.4598 43.3962 21.4669 43.3856L21.4916 43.3462L21.5122 43.3138L21.5158 43.3067C21.5264 43.2891 21.5358 43.2708 21.5452 43.2526L21.5634 43.2178C21.5776 43.1884 21.5911 43.159 21.6035 43.1272L23.1359 39.3124V39.3124L23.1424 39.2953L23.1683 39.2311L23.9601 37.246L23.9648 37.2348L23.9153 37.1955ZM46.167 43.0927C46.1651 43.0975 46.1629 43.1022 46.1605 43.1068C46.1605 43.1151 46.1535 43.1228 46.1505 43.131C46.1468 43.1416 46.1425 43.1521 46.1376 43.1621C46.1358 43.1666 46.1339 43.171 46.1317 43.1751C46.1293 43.1813 46.1264 43.1872 46.1229 43.1928C45.9016 43.6521 45.4465 43.9533 44.9372 43.9775H44.9089C44.9009 43.9781 44.8928 43.9781 44.8848 43.9776L44.8348 43.9775L44.0971 43.9758H43.7839C43.0359 43.9779 42.3181 43.6811 41.79 43.1514C41.262 42.6216 40.9676 41.9027 40.9723 41.1547V40.9781V40.6838V40.3893V40.3741V39.8784V39.8419C40.9723 38.744 41.5963 37.7272 42.5924 37.2663C42.9642 37.0942 43.3689 37.0043 43.7786 37.0032H43.9806L44.8301 36.999H44.9089H44.9366C45.4459 37.0231 45.9011 37.3244 46.1223 37.7838C46.1258 37.7894 46.1287 37.7952 46.1311 37.8014C46.1333 37.8057 46.1353 37.81 46.137 37.8144C46.1419 37.8245 46.1462 37.835 46.1499 37.8456C46.1499 37.8538 46.157 37.8616 46.1599 37.8697C46.1623 37.8744 46.1645 37.8791 46.1664 37.8838C46.2667 38.1429 46.2872 38.426 46.2253 38.6968C46.2253 38.7051 46.2217 38.7128 46.2194 38.721C46.217 38.7292 46.2129 38.7463 46.2094 38.7587H46.197L45.2368 38.7492L44.8424 38.7457H44.1566C43.7754 38.7423 43.4088 38.8914 43.1383 39.1599C42.8678 39.4284 42.7159 39.794 42.7166 40.1751V40.5678V40.8174C42.7189 41.1965 42.8721 41.5591 43.1423 41.8251C43.4125 42.0911 43.7774 42.2386 44.1566 42.235H44.8418L45.2362 42.2314L46.1964 42.2226H46.2117C46.2153 42.235 46.2188 42.248 46.2217 42.2603C46.2247 42.2727 46.2258 42.2756 46.2276 42.2838C46.2885 42.5535 46.2673 42.8351 46.167 43.0927H46.167Z" fill="url(#paint11_linear_2_26)"/>
<path fill-rule="evenodd" clip-rule="evenodd" d="M67.151 1.30538C66.9558 1.09666 66.7274 0.924394 66.5171 0.731545C66.3721 0.598668 66.2225 0.470495 66.0735 0.342322C66.0027 0.283527 65.9603 0.211212 65.9968 0.117729C66.0334 0.0242447 66.1076 0.00366466 66.2048 0.00366466C67.8131 0.0197313 69.4214 0.0344299 71.0302 0.0477605C71.1011 0.0456535 71.1701 0.0706771 71.2233 0.117729C72.4039 1.15917 73.5852 2.19906 74.7674 3.23737C74.7772 3.24796 74.7861 3.25936 74.794 3.27147C74.7451 3.29263 74.7074 3.2597 74.6672 3.24442C73.3124 2.73015 71.9586 2.21336 70.606 1.694C70.5743 1.68224 70.5436 1.66813 70.5117 1.65872C70.4198 1.6235 70.3167 1.66929 70.2814 1.76103C70.2461 1.85275 70.2919 1.95568 70.3839 1.99091C70.414 2.00561 70.4463 2.0156 70.4777 2.02737L74.414 3.53133C74.4729 3.55425 74.5578 3.56425 74.4964 3.66362C74.4493 3.6301 74.3957 3.64656 74.3456 3.64656C73.9862 3.64656 73.6276 3.62657 73.2682 3.64656C73.2463 3.64282 73.2243 3.64027 73.2021 3.63892L71.4542 3.61952L69.8638 3.60364C69.8047 3.60356 69.7483 3.57984 69.707 3.53779C69.5303 3.37493 69.3454 3.21912 69.1645 3.05979C68.6931 2.64294 68.2219 2.22256 67.7448 1.81041C67.5462 1.6405 67.3635 1.45529 67.151 1.30537L67.151 1.30538Z" fill="#434343"/>
<path fill-rule="evenodd" clip-rule="evenodd" d="M72.784 4.90377C72.7357 4.9073 72.6885 4.90848 72.6408 4.91437C71.7512 5.01563 70.8503 4.94127 69.9894 4.69548C69.7988 4.64189 69.6107 4.57866 69.4262 4.50603C69.2409 4.4366 69.0588 4.35815 68.8801 4.27068C68.0744 3.87873 67.3537 3.33235 66.7591 2.66263C66.7279 2.62674 66.696 2.59497 66.663 2.56085C66.7007 2.46259 66.7385 2.36374 66.7767 2.26666C66.8357 2.11427 66.8946 1.96247 66.9536 1.81066L67.0072 1.67121C67.055 1.54824 67.102 1.42586 67.1492 1.30289C67.3618 1.45293 67.5444 1.63827 67.7383 1.80772C68.2155 2.21958 68.6852 2.64086 69.1582 3.05802C69.339 3.21806 69.5235 3.37339 69.7008 3.53637C69.742 3.57868 69.7985 3.60246 69.8577 3.60227L71.4484 3.61816L73.1964 3.63698C73.2185 3.63857 73.2405 3.64132 73.2624 3.64522L73.1209 4.01354L73.1103 4.04178L73.0679 4.15298L72.8912 4.60957L72.784 4.90377Z" fill="#212121"/>
<path fill-rule="evenodd" clip-rule="evenodd" d="M74.488 3.66692C74.5467 3.56736 74.4649 3.55733 74.4056 3.53435L70.4762 2.02479C70.445 2.013 70.4125 2.00298 70.3826 1.98825C70.2907 1.95294 70.245 1.84979 70.2802 1.75787C70.3154 1.66594 70.4185 1.62004 70.5102 1.65535C70.5419 1.66478 70.5727 1.67892 70.6045 1.6907C71.9559 2.21 73.3074 2.7287 74.6585 3.24682C74.6986 3.26214 74.7362 3.29514 74.7849 3.27392C74.9474 3.38705 74.9614 3.43418 74.8891 3.61625C74.6209 4.31349 74.3535 5.01111 74.0873 5.70913L73.7531 5.58127C73.9984 4.94335 74.2432 4.30523 74.4879 3.66691L74.488 3.66692Z" fill="#222222"/>
<path fill-rule="evenodd" clip-rule="evenodd" d="M73.7558 5.57702L74.0893 5.70475C74.2885 5.79362 74.3083 5.83012 74.2653 6.04729C74.2121 6.33135 74.1585 6.61582 74.1047 6.90066C74.0775 7.04192 73.9777 7.10079 73.8415 7.04958C73.5707 6.94834 73.3006 6.84456 73.0314 6.73824C72.9016 6.68703 72.8671 6.58226 72.9392 6.45986C73.1017 6.1852 73.2663 5.91212 73.4329 5.64061C73.5069 5.52408 73.5686 5.51525 73.7558 5.57702H73.7558Z" fill="#EB795B"/>
<path fill-rule="evenodd" clip-rule="evenodd" d="M72.2042 6.43002V6.43002C72.1864 6.4772 72.1523 6.48546 72.1106 6.48899C71.3656 6.58307 70.6104 6.55258 69.8756 6.39877C69.5169 6.32465 69.1649 6.2211 68.8233 6.08915C68.4812 5.95808 68.1505 5.79911 67.8345 5.61381C67.185 5.23523 66.6026 4.75116 66.1111 4.18134C66.0792 4.15578 66.0673 4.11239 66.0818 4.07401V4.07401C66.1149 3.98967 66.1482 3.90534 66.1818 3.82159C66.2154 3.73785 66.2529 3.64172 66.2877 3.55149C66.3224 3.46126 66.3641 3.35805 66.4017 3.26133C66.4061 3.28668 66.4189 3.30988 66.4377 3.32737C66.929 3.8972 67.5115 4.38129 68.161 4.75986C68.477 4.94516 68.8077 5.10413 69.1497 5.2352C69.4915 5.36714 69.8434 5.4707 70.2019 5.54481C70.9368 5.69864 71.6921 5.72912 72.4369 5.63504C72.4651 5.63508 72.4924 5.62432 72.5129 5.60496C72.4758 5.70286 72.4394 5.80075 72.4023 5.89983L72.3 6.17347C72.2678 6.25956 72.2359 6.34508 72.2041 6.43001L72.2042 6.43002Z" fill="#212121"/>
<path fill-rule="evenodd" clip-rule="evenodd" d="M72.5154 5.60458C72.4949 5.62394 72.4677 5.63469 72.4394 5.63465C71.6942 5.7287 70.9385 5.69822 70.2033 5.54446C69.8446 5.47037 69.4925 5.36685 69.1505 5.23495C68.8083 5.10394 68.4776 4.94502 68.1614 4.75978C67.5115 4.38133 66.9288 3.89742 66.4373 3.32779C66.4184 3.3103 66.4058 3.28711 66.4013 3.26177C66.4201 3.21402 66.439 3.16626 66.4571 3.11792V3.11792C66.4925 3.02477 66.5283 2.93162 66.5643 2.83848L66.6297 2.66751C66.6431 2.63155 66.6572 2.59559 66.6714 2.55963C66.7043 2.59382 66.7362 2.62565 66.7673 2.66161C67.3612 3.33266 68.081 3.88011 68.8857 4.27283C69.0642 4.36086 69.2461 4.43947 69.4313 4.50865C69.6155 4.58143 69.8032 4.64479 69.9938 4.69848C70.8536 4.94474 71.7535 5.01925 72.6419 4.91779C72.6896 4.91189 72.7366 4.91072 72.7849 4.90718L72.7461 5.00918L72.6755 5.1943C72.642 5.28273 72.6081 5.37135 72.5736 5.46017C72.5738 5.46213 72.5738 5.46411 72.5736 5.46607C72.5508 5.51206 72.533 5.55862 72.5154 5.60461L72.5154 5.60458Z" fill="#EB795B"/>
<defs>
<linearGradient id="paint0_linear_2_26" x1="7.157" y1="18.8833" x2="57.8136" y2="63.4934" gradientUnits="userSpaceOnUse">
<stop stop-color="#FD3A2D"/>
<stop offset="0.77" stop-color="#FFA12C"/>
</linearGradient>
<linearGradient id="paint1_linear_2_26" x1="-18.034" y1="18.2676" x2="33.0723" y2="63.2902" gradientUnits="userSpaceOnUse">
<stop stop-color="#FD3A2D"/>
<stop offset="0.77" stop-color="#FFA12C"/>
</linearGradient>
<linearGradient id="paint2_linear_2_26" x1="30.6974" y1="18.8994" x2="82.4458" y2="64.4777" gradientUnits="userSpaceOnUse">
<stop stop-color="#FD3A2D"/>
<stop offset="0.77" stop-color="#FFA12C"/>
</linearGradient>
<radialGradient id="paint3_radial_2_26" cx="0" cy="0" r="1" gradientUnits="userSpaceOnUse" gradientTransform="translate(24.9172 19.4331) rotate(90) scale(13.7238 10.775)">
<stop stop-color="#ECC045" stop-opacity="0.01"/>
<stop offset="0.77"/>
</radialGradient>
<radialGradient id="paint4_radial_2_26" cx="0" cy="0" r="1" gradientUnits="userSpaceOnUse" gradientTransform="translate(49.1477 19.2673) rotate(90) scale(13.7218 10.7734)">
<stop stop-color="#ECC045" stop-opacity="0.01"/>
<stop offset="0.77"/>
</radialGradient>
<linearGradient id="paint5_linear_2_26" x1="54.1859" y1="11.6266" x2="68.7357" y2="32.1751" gradientUnits="userSpaceOnUse">
<stop offset="0.23"/>
<stop offset="1" stop-color="#ECC045" stop-opacity="0.01"/>
</linearGradient>
<linearGradient id="paint6_linear_2_26" x1="13.4455" y1="81.0254" x2="67.4978" y2="33.4308" gradientUnits="userSpaceOnUse">
<stop stop-color="#FD3A2D"/>
<stop offset="0.77" stop-color="#FFA12C"/>
</linearGradient>
<linearGradient id="paint7_linear_2_26" x1="43.6004" y1="72.4802" x2="89.6626" y2="15.1256" gradientUnits="userSpaceOnUse">
<stop stop-color="#FD3A2D"/>
<stop offset="0.77" stop-color="#FFA12C"/>
</linearGradient>
<linearGradient id="paint8_linear_2_26" x1="65.9709" y1="74.6274" x2="111.497" y2="17.9561" gradientUnits="userSpaceOnUse">
<stop stop-color="#FD3A2D"/>
<stop offset="0.77" stop-color="#FFA12C"/>
</linearGradient>
<linearGradient id="paint9_linear_2_26" x1="57.0483" y1="24.2669" x2="77.2883" y2="24.2669" gradientUnits="userSpaceOnUse">
<stop stop-color="#FD3A2D"/>
<stop offset="0.77" stop-color="#FFA12C"/>
</linearGradient>
<linearGradient id="paint10_linear_2_26" x1="32.6733" y1="24.259" x2="52.8633" y2="24.259" gradientUnits="userSpaceOnUse">
<stop stop-color="#FD3A2D"/>
<stop offset="0.77" stop-color="#FFA12C"/>
</linearGradient>
<linearGradient id="paint11_linear_2_26" x1="-25.5251" y1="45.079" x2="84.2059" y2="45.079" gradientUnits="userSpaceOnUse">
<stop stop-color="#FD3A2D"/>
<stop offset="1" stop-color="#FFA12C"/>
</linearGradient>
</defs>
</svg>
